#!OML:ASF X:\für Bonn\!DataBase\2005_08_11_Bastian_Final\c3d\Bastian.ASF
:FULLY-SPECIFIED
:DEGREES
170
root 22.1642 16.4889 -5.05278 551.405 -116.646 -163.137
lowerback 71.6807 0.798979 9.77609
upperback 17.701 4.61258 3.88523
thorax -0.619291 1.40247 -1.22475
lowerneck -6.28487 -6.38264 2.60356
upperneck -21.3623 -9.20134 1.98589
head -5.49298 -5.29587 0.499395
rclavicle 3.18055e-014 1.59028e-015
rhumerus 50.3272 -1.99758 -31.1208
rradius 26.4949
rwrist -17.2542
rhand -37.5495 -11.0002
rfingers 7.12502
rthumb -10.6047 -40.7126
lclavicle 3.18055e-014 1.59028e-015
lhumerus -7.00223 -32.1751 88.9599
lradius 51.8744
lwrist 33.3708
lhand -13.2791 -15.4728
lfingers 7.12502
lthumb 12.8241 14.1133
rfemur -65.8459 -17.3641 23.5581
rtibia 61.5139
rfoot -16.1505 -4.54087
rtoes 6.19447
lfemur -60.2568 -6.01318 -28.4149
ltibia 45.1883
lfoot -2.89573 -8.85291
ltoes -18.1678
171
root 22.1619 16.4854 -5.06193 551.434 -116.908 -163.226
lowerback 71.5627 0.875705 9.80141
upperback 17.7268 4.71698 3.95515
thorax -0.601394 1.44885 -1.20026
lowerneck -6.32086 -6.47101 2.62744
upperneck -21.3404 -9.31348 2.05815
head -5.47898 -5.35795 0.519295
rclavicle 9.22361e-014 -9.54166e-015
rhumerus 50.5695 -1.4382 -30.6755
rradius 26.4965
rwrist -17.3565
rhand -37.2373 -10.9331
rfingers 7.12502
rthumb -10.3036 -40.6607
lclavicle 9.22361e-014 -9.54166e-015
lhumerus -6.94442 -32.4132 89.0173
lradius 51.8541
lwrist 33.4562
lhand -13.2869 -15.3867
lfingers 7.12502
lthumb 12.8167 14.1999
rfemur -65.8033 -17.5545 23.622
rtibia 61.5897
rfoot -16.231 -4.57643
rtoes 6.38503
lfemur -60.2055 -6.13001 -28.3752
ltibia 45.2034
lfoot -2.85723 -8.97914
ltoes -18.065
172
root 22.1599 16.4803 -5.07204 551.388 -117.169 -163.195
lowerback 71.4063 0.973298 9.7674
upperback 17.7777 4.80032 4.03082
thorax -0.565208 1.48437 -1.14009
lowerneck -6.42643 -6.55763 2.65503
upperneck -21.3012 -9.43099 2.11092
head -5.44951 -5.42288 0.529333
rclavicle -4.77083e-014 1.27222e-014
rhumerus 50.8883 -0.962958 -30.3082
rradius 26.4688
rwrist -17.4292
rhand -36.8932 -10.7708
rfingers 7.12502
rthumb -9.97156 -40.5147
lclavicle -4.77083e-014 1.27222e-014
lhumerus -6.83093 -32.5924 89.0823
lradius 51.7588
lwrist 33.5515
lhand -13.3273 -15.4077
lfingers 7.12502
lthumb 12.7777 14.1813
rfemur -65.8346 -17.7636 23.6592
rtibia 61.688
rfoot -16.296 -4.62155
rtoes 6.42726
lfemur -60.1963 -6.23727 -28.4174
ltibia 45.2259
lfoot -2.82983 -9.13387
ltoes -18.1844
173
root 22.1578 16.4741 -5.08224 551.336 -117.449 -163.182
lowerback 71.3186 1.0248 9.78335
upperback 17.76 4.88527 4.07295
thorax -0.594038 1.52451 -1.13547
lowerneck -6.42311 -6.65632 2.69618
upperneck -21.2791 -9.55201 2.20211
head -5.44171 -5.49092 0.554082
rclavicle -1.24042e-013 2.54444e-014
rhumerus 51.1209 -0.459735 -29.9358
rradius 26.4692
rwrist -17.5389
rhand -36.5083 -10.5238
rfingers 7.12502
rthumb -9.60027 -40.2851
lclavicle -1.24042e-013 2.54444e-014
lhumerus -6.80849 -32.8044 89.1438
lradius 51.6719
lwrist 33.6067
lhand -13.3221 -15.4544
lfingers 7.12502
lthumb 12.7827 14.1342
rfemur -65.8291 -17.9717 23.6774
rtibia 61.8001
rfoot -16.4215 -4.66757
rtoes 6.55637
lfemur -60.1695 -6.35627 -28.441
ltibia 45.2675
lfoot -2.79428 -9.29591
ltoes -18.0614
174
root 22.156 16.4678 -5.09328 551.266 -117.725 -163.142
lowerback 71.2101 1.07078 9.79583
upperback 17.7727 4.95246 4.10048
thorax -0.588202 1.56096 -1.13958
lowerneck -6.48346 -6.74837 2.72487
upperneck -21.2511 -9.66232 2.31675
head -5.41985 -5.5549 0.58471
rclavicle 9.54166e-014 -1.43125e-014
rhumerus 51.4103 -0.0529378 -29.7132
rradius 26.4207
rwrist -17.6092
rhand -36.1721 -10.1561
rfingers 7.12502
rthumb -9.27588 -39.9321
lclavicle 9.54166e-014 -1.43125e-014
lhumerus -6.74945 -32.9666 89.2029
lradius 51.5916
lwrist 33.6803
lhand -13.3031 -15.4628
lfingers 7.12502
lthumb 12.801 14.1247
rfemur -65.8536 -18.1789 23.6989
rtibia 61.9317
rfoot -16.5083 -4.73335
rtoes 6.5926
lfemur -60.1603 -6.45501 -28.4935
ltibia 45.3155
lfoot -2.77112 -9.44827
ltoes -17.9001
175
root 22.1543 16.4607 -5.10355 551.21 -117.998 -163.107
lowerback 71.1413 1.10479 9.82527
upperback 17.7352 5.03179 4.1245
thorax -0.634968 1.60119 -1.15796
lowerneck -6.49395 -6.8523 2.7622
upperneck -21.2114 -9.79405 2.39071
head -5.40485 -5.62655 0.603813
rclavicle -1.27222e-014 5.40694e-014
rhumerus 51.6451 0.419852 -29.3901
rradius 26.4632
rwrist -17.7723
rhand -35.8311 -9.96384
rfingers 7.12502
rthumb -8.94679 -39.7541
lclavicle -1.27222e-014 5.40694e-014
lhumerus -6.75595 -33.0937 89.3235
lradius 51.4848
lwrist 33.7017
lhand -13.2828 -15.491
lfingers 7.12502
lthumb 12.8205 14.0953
rfemur -65.8891 -18.4136 23.7323
rtibia 62.0709
rfoot -16.6104 -4.74562
rtoes 6.76958
lfemur -60.1573 -6.57041 -28.5389
ltibia 45.3784
lfoot -2.76268 -9.60462
ltoes -17.9774
176
root 22.1527 16.4516 -5.11429 551.151 -118.281 -163.051
lowerback 71.0516 1.12422 9.85964
upperback 17.699 5.09705 4.13254
thorax -0.679514 1.63875 -1.1918
lowerneck -6.5087 -6.94723 2.72787
upperneck -21.1869 -9.89119 2.57503
head -5.38402 -5.6821 0.666963
rclavicle 5.40694e-014 -4.77083e-015
rhumerus 51.9068 0.766214 -29.3329
rradius 26.4366
rwrist -17.6801
rhand -35.4216 -9.7245
rfingers 7.12502
rthumb -8.55161 -39.5313
lclavicle 5.40694e-014 -4.77083e-015
lhumerus -6.76435 -33.1883 89.4417
lradius 51.3443
lwrist 33.6634
lhand -13.2656 -15.5662
lfingers 7.12502
lthumb 12.8371 14.019
rfemur -65.9632 -18.6422 23.7602
rtibia 62.2263
rfoot -16.7001 -4.79527
rtoes 6.8146
lfemur -60.1835 -6.69407 -28.5872
ltibia 45.4505
lfoot -2.73674 -9.7781
ltoes -17.8873
177
root 22.1515 16.4436 -5.12595 551.036 -118.568 -162.952
lowerback 71.0461 1.10813 9.91805
upperback 17.6227 5.15095 4.09642
thorax -0.756713 1.67648 -1.27712
lowerneck -6.53401 -7.04924 2.7718
upperneck -21.1489 -10.0077 2.71383
head -5.36381 -5.75002 0.703598
rclavicle -4.45278e-014 -1.74931e-014
rhumerus 52.138 1.15872 -29.1982
rradius 26.4328
rwrist -17.7417
rhand -35.1044 -9.54921
rfingers 7.12502
rthumb -8.24555 -39.3683
lclavicle -4.45278e-014 -1.74931e-014
lhumerus -6.79734 -33.3124 89.5329
lradius 51.2529
lwrist 33.6519
lhand -13.2577 -15.5914
lfingers 7.12502
lthumb 12.8448 13.9933
rfemur -66.0042 -18.8635 23.7441
rtibia 62.3881
rfoot -16.8446 -4.83978
rtoes 6.93357
lfemur -60.1983 -6.81149 -28.6677
ltibia 45.5305
lfoot -2.7089 -9.9592
ltoes -17.8149
178
root 22.15 16.4336 -5.13716 550.907 -118.844 -162.825
lowerback 71.0452 1.08573 9.9834
upperback 17.525 5.20642 4.04407
thorax -0.855593 1.71673 -1.38426
lowerneck -6.45684 -7.16677 2.8203
upperneck -21.1594 -10.1332 2.89628
head -5.37323 -5.82534 0.759278
rclavicle 1.59028e-014 1.59028e-015
rhumerus 52.3348 1.56189 -29.0585
rradius 26.4486
rwrist -17.8853
rhand -34.8073 -9.48256
rfingers 7.12502
rthumb -7.95879 -39.3127
lclavicle 1.59028e-014 1.59028e-015
lhumerus -6.86922 -33.4317 89.6514
lradius 51.1227
lwrist 33.6336
lhand -13.2381 -15.672
lfingers 7.12502
lthumb 12.8636 13.9115
rfemur -66.0935 -19.1217 23.7527
rtibia 62.568
rfoot -16.9426 -4.86003
rtoes 6.8768
lfemur -60.2205 -6.9142 -28.771
ltibia 45.6176
lfoot -2.68989 -10.135
ltoes -17.7326
179
root 22.1479 16.4233 -5.14822 550.767 -119.128 -162.672
lowerback 71.0108 1.06226 10.0385
upperback 17.4692 5.24439 4.00438
thorax -0.911027 1.7496 -1.46719
lowerneck -6.40034 -7.29222 2.88355
upperneck -21.1875 -10.2784 3.04909
head -5.38735 -5.91152 0.804041
rclavicle 9.54166e-015 -1.43125e-014
rhumerus 52.6327 1.81472 -29.1211
rradius 26.3703
rwrist -17.8535
rhand -34.5162 -9.38346
rfingers 7.12502
rthumb -7.67782 -39.2241
lclavicle 9.54166e-015 -1.43125e-014
lhumerus -6.85324 -33.5191 89.7372
lradius 50.9803
lwrist 33.6272
lhand -13.1887 -15.6958
lfingers 7.12502
lthumb 12.9113 13.8848
rfemur -66.1873 -19.3829 23.7349
rtibia 62.7619
rfoot -17.0594 -4.86648
rtoes 6.9522
lfemur -60.2536 -7.00172 -28.9222
ltibia 45.709
lfoot -2.68315 -10.3534
ltoes -17.8335
180
root 22.1469 16.4119 -5.15969 550.658 -119.435 -162.55
lowerback 70.9784 0.998951 10.1347
upperback 17.4055 5.2681 3.95193
thorax -0.969146 1.77987 -1.57462
lowerneck -6.21476 -7.42642 2.93278
upperneck -21.292 -10.4185 3.26018
head -5.44215 -5.99847 0.877391
rclavicle -8.26944e-014 9.54166e-015
rhumerus 52.8882 2.1641 -28.9925
rradius 26.3891
rwrist -18.0967
rhand -34.3421 -9.36663
rfingers 7.12502
rthumb -7.50976 -39.2133
lclavicle -8.26944e-014 9.54166e-015
lhumerus -6.88701 -33.5798 89.8545
lradius 50.8785
lwrist 33.5499
lhand -13.2021 -15.6929
lfingers 7.12502
lthumb 12.8983 13.8885
rfemur -66.3019 -19.6471 23.7383
rtibia 62.9704
rfoot -17.1724 -4.91017
rtoes 6.99967
lfemur -60.2997 -7.14351 -29.0126
ltibia 45.8098
lfoot -2.65615 -10.5386
ltoes -17.6886
181
root 22.1448 16.3994 -5.17153 550.543 -119.744 -162.402
lowerback 70.9269 0.92524 10.2435
upperback 17.368 5.27978 3.87765
thorax -0.994504 1.81124 -1.70702
lowerneck -6.12204 -7.55944 3.04635
upperneck -21.376 -10.5688 3.43422
head -5.4814 -6.09402 0.925203
rclavicle 2.22639e-014 -2.70347e-014
rhumerus 53.1455 2.41376 -28.9515
rradius 26.4293
rwrist -18.3652
rhand -34.184 -9.47287
rfingers 7.12502
rthumb -7.35715 -39.325
lclavicle 2.22639e-014 -2.70347e-014
lhumerus -6.82375 -33.6932 89.887
lradius 50.7395
lwrist 33.5294
lhand -13.2363 -15.6888
lfingers 7.12502
lthumb 12.8654 13.8947
rfemur -66.4368 -19.9326 23.7403
rtibia 63.1945
rfoot -17.3071 -4.9117
rtoes 7.18104
lfemur -60.3679 -7.28755 -29.1209
ltibia 45.9185
lfoot -2.63321 -10.7273
ltoes -17.58
182
root 22.1431 16.3862 -5.18374 550.413 -120.05 -162.216
lowerback 70.8807 0.845462 10.3497
upperback 17.3208 5.28526 3.78975
thorax -1.02958 1.84153 -1.85132
lowerneck -6.00281 -7.69952 3.18968
upperneck -21.4922 -10.7287 3.60346
head -5.53731 -6.19749 0.970138
rclavicle -6.04305e-014 -1.90833e-014
rhumerus 53.4165 2.62986 -28.9648
rradius 26.4067
rwrist -18.6078
rhand -34.105 -9.548
rfingers 7.12502
rthumb -7.28089 -39.4027
lclavicle -6.04305e-014 -1.90833e-014
lhumerus -6.79455 -33.8304 89.9145
lradius 50.6582
lwrist 33.5637
lhand -13.2501 -15.6768
lfingers 7.12502
lthumb 12.8521 13.9075
rfemur -66.6176 -20.2264 23.741
rtibia 63.4314
rfoot -17.4614 -4.92877
rtoes 7.1737
lfemur -60.4578 -7.40076 -29.2748
ltibia 46.042
lfoot -2.61641 -10.9413
ltoes -17.4726
183
root 22.1404 16.3728 -5.19629 550.322 -120.367 -162.063
lowerback 70.843 0.776956 10.4431
upperback 17.2801 5.29701 3.73947
thorax -1.06183 1.86783 -1.95037
lowerneck -5.95279 -7.83262 3.20452
upperneck -21.5648 -10.8734 3.81427
head -5.55782 -6.28595 1.04203
rclavicle -1.55847e-013 4.92986e-014
rhumerus 53.7127 2.88099 -28.8098
rradius 26.4634
rwrist -19.0919
rhand -34.1003 -9.72324
rfingers 7.12502
rthumb -7.27643 -39.5781
lclavicle -1.55847e-013 4.92986e-014
lhumerus -6.79579 -33.8549 90.0222
lradius 50.5819
lwrist 33.5264
lhand -13.287 -15.67
lfingers 7.12502
lthumb 12.8165 13.9166
rfemur -66.7931 -20.508 23.7472
rtibia 63.6785
rfoot -17.6081 -4.94028
rtoes 7.35781
lfemur -60.5609 -7.53881 -29.4022
ltibia 46.171
lfoot -2.62457 -11.1526
ltoes -17.6063
